<svg width="40" height="41" viewBox="0 0 40 41" fill="none" xmlns="http://www.w3.org/2000/svg">
<rect x="0.5" y="1" width="39" height="39" rx="19.5" stroke="#D27272"/>
<path d="M23.1249 19.4585L22.0833 28.8335" stroke="#D27272" stroke-width="2" stroke-linecap="round" stroke-linejoin="round"/>
<path d="M27.2917 19.4582L23.125 12.1665" stroke="#D27272" stroke-width="2" stroke-linecap="round" stroke-linejoin="round"/>
<path d="M9.58325 19.4585H30.4166" stroke="#D27272" stroke-width="2" stroke-linecap="round" stroke-linejoin="round"/>
<path d="M11.1458 19.4585L12.8124 27.1668C12.9098 27.6445 13.1716 28.0729 13.5523 28.3774C13.933 28.6819 14.4084 28.8433 14.8958 28.8335H25.1041C25.5915 28.8433 26.0669 28.6819 26.4475 28.3774C26.8282 28.0729 27.09 27.6445 27.1874 27.1668L28.9583 19.4585" stroke="#D27272" stroke-width="2" stroke-linecap="round" stroke-linejoin="round"/>
<path d="M12.1875 24.146H27.8125" stroke="#D27272" stroke-width="2" stroke-linecap="round" stroke-linejoin="round"/>
<path d="M12.7083 19.4582L16.8749 12.1665" stroke="#D27272" stroke-width="2" stroke-linecap="round" stroke-linejoin="round"/>
<path d="M16.875 19.4585L17.9167 28.8335" stroke="#D27272" stroke-width="2" stroke-linecap="round" stroke-linejoin="round"/>
</svg>
