<svg width="40" height="40" viewBox="0 0 40 40" fill="none" xmlns="http://www.w3.org/2000/svg">
<rect x="0.5" y="0.5" width="39" height="39" rx="19.5" stroke="#D27272"/>
<path d="M27.7255 15.85C28.1707 15.4271 28.4209 14.8535 28.421 14.2554C28.421 13.6573 28.171 13.0837 27.7259 12.6607C27.2808 12.2377 26.677 12.0001 26.0474 12C25.4179 11.9999 24.814 12.2374 24.3688 12.6603L13.13 23.3398C12.9345 23.525 12.7899 23.753 12.7089 24.0038L11.5965 27.4855C11.5747 27.5546 11.5731 27.6281 11.5917 27.6981C11.6104 27.7681 11.6486 27.832 11.7024 27.8831C11.7562 27.9341 11.8235 27.9703 11.8973 27.9879C11.971 28.0055 12.0483 28.0039 12.1211 27.9831L15.7868 26.927C16.0506 26.8508 16.2906 26.7143 16.4858 26.5294L27.7255 15.85Z" stroke="#D27272" stroke-width="1.5" stroke-linecap="round" stroke-linejoin="round"/>
<path d="M22 15L25 18" stroke="#D27272" stroke-width="1.5" stroke-linecap="round" stroke-linejoin="round"/>
</svg>
